<?xml version="1.0" encoding="utf-8"?>
<!-- Generator: Adobe Illustrator 17.0.0, SVG Export Plug-In . SVG Version: 6.00 Build 0)  -->
<!DOCTYPE svg PUBLIC "-//W3C//DTD SVG 1.1//EN" "http://www.w3.org/Graphics/SVG/1.1/DTD/svg11.dtd">
<svg version="1.1" xmlns="http://www.w3.org/2000/svg" xmlns:xlink="http://www.w3.org/1999/xlink" x="0px" y="0px"
	 width="437.243px" height="640.432px" viewBox="0 0 437.243 640.432" enable-background="new 0 0 437.243 640.432"
	 xml:space="preserve">
<g id="Layer_1">
	<g id="XMLID_1503_">
		<g id="XMLID_1560_">
			<ellipse id="XMLID_1582_" fill="#DF358D" cx="213.206" cy="354.825" rx="95.337" ry="46.556"/>
			<path id="XMLID_1581_" opacity="0.31" fill="#DF358D" d="M275.036,334.562c0,18.025-27.919,32.637-62.358,32.637
				s-62.358-14.612-62.358-32.637"/>
			<path id="XMLID_1580_" opacity="0.31" fill="#DF358D" d="M213.206,332.175c19.817,0,38.525-4.833,55.014-13.375
				c-15.543-5.372-34.523-8.53-55.014-8.53s-39.471,3.158-55.014,8.53C174.681,327.342,193.389,332.175,213.206,332.175z"/>
			
				<ellipse id="XMLID_1579_" fill="none" stroke="#2A2A2A" stroke-width="10" stroke-linecap="round" stroke-linejoin="round" stroke-miterlimit="10" cx="213.206" cy="354.825" rx="95.337" ry="46.556"/>
			<path id="XMLID_1578_" fill="#DF358D" d="M352.91,491.181H73.502v-60.742c0-28.62,18.253-54.052,45.367-63.212l12.634-4.268
				c52.997-17.904,110.408-17.904,163.405,0l12.634,4.268c27.114,9.16,45.367,34.592,45.367,63.212V491.181z"/>
			<path id="XMLID_1577_" opacity="0.31" fill="#DF358D" d="M307.543,367.227l-12.634-4.268
				c-52.997-17.904-110.408-17.904-163.406,0l-12.634,4.268c-27.114,9.16-45.367,34.592-45.367,63.212v10.725
				c0-28.62,18.253-54.052,45.367-63.212l12.634-4.268c52.997-17.904,110.408-17.904,163.406,0l12.634,4.268
				c27.114,9.16,45.367,34.592,45.367,63.212v-10.725C352.91,401.819,334.657,376.387,307.543,367.227z"/>
			
				<path id="XMLID_1576_" fill="none" stroke="#2A2A2A" stroke-width="10" stroke-linecap="round" stroke-linejoin="round" stroke-miterlimit="10" d="
				M352.91,491.181H73.502v-60.742c0-28.62,18.253-54.052,45.367-63.212l12.634-4.268c52.997-17.904,110.408-17.904,163.405,0
				l12.634,4.268c27.114,9.16,45.367,34.592,45.367,63.212V491.181z"/>
			
				<path id="XMLID_1575_" opacity="0.31" fill="#DF358D" stroke="#DF358D" stroke-width="10" stroke-linecap="round" stroke-miterlimit="10" d="
				M165.268,360.402v21.085c0,15.958,13.943,28.894,31.143,28.894h33.591c17.2,0,31.143-12.936,31.143-28.894v-21.085"/>
			<g id="XMLID_1572_">
				<path id="XMLID_1574_" fill="#DF358D" d="M155.055,333.016c0,0,10.213,7.462,10.213,18.386v21.085
					c0,15.958,13.943,28.894,31.143,28.894h33.591c17.2,0,31.143-12.936,31.143-28.894v-21.085
					c0-10.923,10.213-18.386,10.213-18.386H155.055z"/>
				
					<path id="XMLID_1573_" fill="none" stroke="#2A2A2A" stroke-width="10" stroke-linecap="round" stroke-linejoin="round" stroke-miterlimit="10" d="
					M155.055,333.016c0,0,10.213,7.462,10.213,18.386v21.085c0,15.958,13.943,28.894,31.143,28.894h33.591
					c17.2,0,31.143-12.936,31.143-28.894v-21.085c0-10.923,10.213-18.386,10.213-18.386"/>
			</g>
			<path id="XMLID_1569_" fill="#F9A991" d="M213.206,377.162L213.206,377.162c-13.255,0-24-10.745-24-24v-53.444h48v53.444
				C237.206,366.417,226.461,377.162,213.206,377.162z"/>
			<path id="XMLID_1566_" opacity="0.26" fill="#F9A991" d="M189.206,329.762c7.757,1.581,15.783,2.413,24,2.413
				c8.217,0,16.243-0.832,24-2.413v-28.044h-48V329.762z"/>
			
				<path id="XMLID_1565_" fill="none" stroke="#2A2A2A" stroke-width="10" stroke-linecap="round" stroke-linejoin="round" stroke-miterlimit="10" d="
				M213.206,377.162L213.206,377.162c-13.255,0-24-10.745-24-24v-53.444h48v53.444C237.206,366.417,226.461,377.162,213.206,377.162
				z"/>
			<g id="XMLID_1562_">
				
					<line id="XMLID_1564_" fill="none" stroke="#FFFFFF" stroke-width="8" stroke-linecap="round" stroke-linejoin="round" stroke-miterlimit="10" x1="183.705" y1="383.427" x2="183.705" y2="424.058"/>
				
					<line id="XMLID_1563_" fill="none" stroke="#FFFFFF" stroke-width="8" stroke-linecap="round" stroke-linejoin="round" stroke-miterlimit="10" x1="242.706" y1="383.427" x2="242.706" y2="441.164"/>
			</g>
			
				<line id="XMLID_1561_" fill="none" stroke="#2A2A2A" stroke-width="10" stroke-linecap="round" stroke-linejoin="round" stroke-miterlimit="10" x1="213.206" y1="405.275" x2="213.206" y2="491.181"/>
		</g>
		<g id="XMLID_1504_">
			<g id="XMLID_1505_">
				<g id="XMLID_1534_">
					<path id="XMLID_1557_" fill="#F9A991" d="M213.206,320.174L213.206,320.174c-60.751,0-110-49.249-110-110V98.525h220v111.649
						C323.206,270.926,273.957,320.174,213.206,320.174z"/>
					<path id="XMLID_1554_" opacity="0.26" fill="#F9A991" d="M323.206,195.042V98.525h-220v96.517l0.402-41.173
						c1.692-5.999,24.225-22.501,38.803-29.31c18.648,11.238,39.646,16.928,62.521,16.928c25.963,0,49.501-7.449,64.581-15.109
						c7.369,6.946,25.779,20.405,50.672,22.556L323.206,195.042z"/>
					<path id="XMLID_1551_" opacity="0.26" fill="#F9A991" d="M213.206,306.031L213.206,306.031c-60.752,0-110-49.249-110-110
						v14.143c0,60.751,49.249,110,110,110h0c60.751,0,110-49.249,110-110v-14.143C323.206,256.783,273.957,306.031,213.206,306.031z
						"/>
					<path id="XMLID_1548_" opacity="0.26" fill="#F9A991" d="M229.661,217.698c0,4.276-5.44,7.742-16.455,7.742
						c-11.016,0-16.455-3.466-16.455-7.742c0,0,11.813,1.855,15.927,1.855S229.661,217.698,229.661,217.698z"/>
					
						<path id="XMLID_1547_" fill="none" stroke="#2A2A2A" stroke-width="8" stroke-linecap="round" stroke-linejoin="round" stroke-miterlimit="10" d="
						M229.661,219.698c0,4.276-5.44,7.742-16.455,7.742c-11.016,0-16.455-3.466-16.455-7.742"/>
					
						<path id="XMLID_1546_" fill="none" stroke="#2A2A2A" stroke-width="10" stroke-linecap="round" stroke-linejoin="round" stroke-miterlimit="10" d="
						M213.206,320.174L213.206,320.174c-60.751,0-110-49.249-110-110V98.525h220v111.649
						C323.206,270.926,273.957,320.174,213.206,320.174z"/>
					<g id="XMLID_1539_">
						<g id="XMLID_1543_">
							
								<path id="XMLID_1545_" fill="none" stroke="#2A2A2A" stroke-width="8" stroke-linecap="round" stroke-linejoin="round" stroke-miterlimit="10" d="
								M171.269,167.73c-4.981-1.098-10.703-1.294-16.665-0.365c-5.961,0.929-11.353,2.857-15.763,5.418"/>
							<circle id="XMLID_1544_" fill="#2A2A2A" cx="164.303" cy="191.207" r="8.999"/>
						</g>
						<g id="XMLID_1540_">
							
								<path id="XMLID_1542_" fill="none" stroke="#2A2A2A" stroke-width="8" stroke-linecap="round" stroke-linejoin="round" stroke-miterlimit="10" d="
								M255.143,167.73c4.981-1.098,10.703-1.294,16.665-0.365s11.353,2.857,15.763,5.418"/>
							<circle id="XMLID_1541_" fill="#2A2A2A" cx="262.109" cy="191.207" r="8.999"/>
						</g>
					</g>
					<g id="XMLID_1535_">
						<path id="XMLID_1538_" fill="#FFFFFF" d="M242.706,248.261c0,15.08-13.208,27.305-29.5,27.305s-29.5-12.225-29.5-27.305
							H242.706z"/>
						
							<path id="XMLID_1537_" fill="none" stroke="#2A2A2A" stroke-width="8" stroke-linecap="round" stroke-linejoin="round" stroke-miterlimit="10" d="
							M242.706,248.261c0,15.08-13.208,27.305-29.5,27.305s-29.5-12.225-29.5-27.305H242.706z"/>
						
							<line id="XMLID_1536_" fill="none" stroke="#2A2A2A" stroke-width="8" stroke-linecap="round" stroke-linejoin="round" stroke-miterlimit="10" x1="205.969" y1="290.716" x2="220.442" y2="290.716"/>
					</g>
				</g>
				<g id="XMLID_1532_">
					<path id="XMLID_1533_" fill="#8E4B42" d="M88.372,102.525v78.516h14.834v-37.105c0-9.069,38.998-35.393,38.998-35.393
						c50.648,34.648,109.871,13.498,129.153,1.33c0,0,16.214,20.277,51.849,32.499v38.668h14.834v-78.516
						c0-24.208-14.64-54.682-47.684-59.677c-8.453-24.975-40.054-32.99-57.585-30.688c-45.844,6.019-61.502,9.319-93.93-6.272
						c-6.634,17.22,0,28.553,0,28.553c-13.635,2.431-15.327,4.425-35.598-0.138c0,8.245,0.444,20.453,3.97,25.21
						C89.684,69.664,88.372,83.416,88.372,102.525z"/>
				</g>
				<g id="XMLID_1530_">
					
						<path id="XMLID_1531_" fill="none" stroke="#2A2A2A" stroke-width="10" stroke-linecap="round" stroke-linejoin="round" stroke-miterlimit="10" d="
						M88.372,102.525v78.516h14.834v-37.105c0-9.069,38.998-35.393,38.998-35.393c50.648,34.648,109.871,13.498,129.153,1.33
						c0,0,16.214,20.277,51.849,32.499v38.668h14.834v-78.516c0-24.208-14.64-54.682-47.684-59.677
						c-8.453-24.975-40.054-32.99-57.585-30.688c-45.844,6.019-61.502,9.319-93.93-6.272c-6.634,17.22,0,28.553,0,28.553
						c-13.635,2.431-15.327,4.425-35.598-0.138c0,8.245,0.444,20.453,3.97,25.21C89.684,69.664,88.372,83.416,88.372,102.525z"/>
				</g>
				<g id="XMLID_1522_">
					<g id="XMLID_1525_">
						<g>
							<path id="XMLID_16_" fill="#F9A991" d="M103.206,210.174V174.25h-7.963c-8.837,0-13.956,7.748-11.518,16.986l3.55,13.455
								c2.02,7.657,9.033,13.801,16.333,14.861C103.347,216.46,103.206,213.334,103.206,210.174z"/>
						</g>
					</g>
					<g id="XMLID_1523_">
						
							<path id="XMLID_1524_" fill="none" stroke="#2A2A2A" stroke-width="10" stroke-linecap="round" stroke-linejoin="round" stroke-miterlimit="10" d="
							M103.206,210.174V174.25h-7.963c-8.837,0-13.956,7.748-11.518,16.986l3.55,13.455c2.02,7.657,9.033,13.801,16.333,14.861
							C103.347,216.46,103.206,213.334,103.206,210.174z"/>
					</g>
				</g>
				<g id="XMLID_1514_">
					<g id="XMLID_1517_">
						<g>
							<path id="XMLID_15_" fill="#F9A991" d="M323.169,210.174V174.25h7.963c8.837,0,13.956,7.748,11.518,16.986l-3.55,13.455
								c-2.02,7.657-9.033,13.801-16.333,14.861C323.027,216.46,323.169,213.334,323.169,210.174z"/>
						</g>
					</g>
					<g id="XMLID_1515_">
						
							<path id="XMLID_1516_" fill="none" stroke="#2A2A2A" stroke-width="10" stroke-linecap="round" stroke-linejoin="round" stroke-miterlimit="10" d="
							M323.169,210.174V174.25h7.963c8.837,0,13.956,7.748,11.518,16.986l-3.55,13.455c-2.02,7.657-9.033,13.801-16.333,14.861
							C323.027,216.46,323.169,213.334,323.169,210.174z"/>
					</g>
				</g>
				<g id="XMLID_1506_" opacity="0.3">
					<g id="XMLID_1512_">
						
							<path id="XMLID_1513_" fill="none" stroke="#2A2A2A" stroke-width="6" stroke-linecap="round" stroke-linejoin="round" stroke-miterlimit="10" d="
							M155.303,76.7c0,0,36.944,4.072,50.667,30.76"/>
					</g>
					<g id="XMLID_1510_">
						
							<path id="XMLID_1511_" fill="none" stroke="#2A2A2A" stroke-width="6" stroke-linecap="round" stroke-linejoin="round" stroke-miterlimit="10" d="
							M166.322,42.127c0,0,56.376,21.741,70.883,65.334"/>
					</g>
					<g id="XMLID_1508_">
						
							<path id="XMLID_1509_" fill="none" stroke="#2A2A2A" stroke-width="6" stroke-linecap="round" stroke-linejoin="round" stroke-miterlimit="10" d="
							M222.698,46.067c0,0,30.411,19.943,32.445,52.877"/>
					</g>
					
						<path id="XMLID_1507_" fill="none" stroke="#2A2A2A" stroke-width="6" stroke-linecap="round" stroke-linejoin="round" stroke-miterlimit="10" d="
						M281.631,93.465c0,0,26.911-4.273,38.554,19.149"/>
				</g>
			</g>
		</g>
	</g>
	<g id="XMLID_1481_">
		<path id="XMLID_1489_" fill="#CDC5C3" d="M358.08,633.216H68.332c-17.673,0-32-14.327-32-32V451.385c0-17.673,14.327-32,32-32
			H358.08c17.673,0,32,14.327,32,32v149.831C390.08,618.889,375.753,633.216,358.08,633.216z"/>
		<path id="XMLID_1486_" opacity="0.7" fill="#FFF7F5" d="M358.08,419.385H68.332c-17.673,0-32,14.327-32,32v12.333
			c0-17.673,14.327-32,32-32H358.08c17.673,0,32,14.327,32,32v-12.333C390.08,433.712,375.753,419.385,358.08,419.385z"/>
		<path id="XMLID_1483_" fill="#AFABAA" d="M36.332,591.35v9.866c0,17.673,14.327,32,32,32H358.08c17.673,0,32-14.327,32-32v-9.866
			H36.332z"/>
		
			<path id="XMLID_1482_" fill="none" stroke="#2A2A2A" stroke-width="10" stroke-linecap="round" stroke-linejoin="round" stroke-miterlimit="10" d="
			M358.08,633.216H68.332c-17.673,0-32-14.327-32-32V451.385c0-17.673,14.327-32,32-32H358.08c17.673,0,32,14.327,32,32v149.831
			C390.08,618.889,375.753,633.216,358.08,633.216z"/>
	</g>
	
		<path id="XMLID_1480_" fill="none" stroke="#2A2A2A" stroke-width="8" stroke-linecap="round" stroke-linejoin="round" stroke-miterlimit="10" d="
		M220.775,522.309c-3.617-8.811,1.915-15.617-1.983-19.33c-3.384-3.224-10.751-1.14-15.163,2.05
		c-6.292,4.549-7.474,11.998-7.667,13.403c-1.658,12.04,7.935,25.62,19.131,26.11c6.996,0.306,15.11-4.477,15.529-9.215
		C231.022,530.796,224.035,530.25,220.775,522.309z"/>
	
		<line id="XMLID_1477_" fill="none" stroke="#2A2A2A" stroke-width="10" stroke-linecap="round" stroke-linejoin="round" stroke-miterlimit="10" x1="6.127" y1="633.216" x2="430.991" y2="633.216"/>
	
		<line id="XMLID_1155_" fill="none" stroke="#FCFCFC" stroke-width="8" stroke-linecap="round" stroke-linejoin="round" stroke-miterlimit="10" x1="552.374" y1="444.88" x2="582.292" y2="444.88"/>
</g>
<g id="Layer_5">
</g>
</svg>
